<?xml version="1.0" encoding="utf-8"?>
<!-- Generator: Adobe Illustrator 26.1.0, SVG Export Plug-In . SVG Version: 6.00 Build 0)  -->
<svg version="1.1" id="Camada_1" xmlns="http://www.w3.org/2000/svg" xmlns:xlink="http://www.w3.org/1999/xlink" x="0px" y="0px"
	 viewBox="0 0 40 10" style="enable-background:new 0 0 40 10;" xml:space="preserve">
<style type="text/css">
	.st0{display:none;fill:#DCCA87;}
	.st1{display:none;}
	.st2{display:inline;}
	.st3{fill:#FFCA09;}
</style>
<path class="st0" d="M33.5,9.5c3.6,0,6.5-2,6.5-4.5s-2.9-4.5-6.5-4.5c-3.4,0-6.2,1.8-6.5,4.1h-4.7V3.7H0v2.7h22.4v-1H27
	C27.3,7.7,30.1,9.5,33.5,9.5z M21.5,5.5H0.9v-1h20.6V5.5z M27.9,5c0-2,2.5-3.7,5.6-3.7S39.1,3,39.1,5s-2.5,3.7-5.6,3.7
	S27.9,7,27.9,5z"/>
<path class="st0" d="M0.6,4.7C0.2,4.3,0,3.8,0,3.3V3c0-1.1,0.9-2,2-2h31c4.4,0,6.7,4.3,6.8,4.4s0.1,0.3,0,0.4C39.8,6,37.3,9,30.9,9
	c-4.7,0-18.3,0-18.3,0c-0.2,0-0.4-0.2-0.4-0.4V5.2L2,5.3C1.5,5.3,1,5.1,0.6,4.7z M12.1,1.8H2C1.4,1.8,0.8,2.3,0.8,3v0.3
	C0.8,4,1.4,4.5,2,4.5h10.1V1.8z M13,7.4v0.8c2.3,0,13.7,0,17.9,0c5.1,0,7.5-2,8.2-2.7C39,5.3,38.8,5,38.5,4.7
	c-0.8,0.6-3.6,2.6-7.4,2.6L13,7.4L13,7.4z M12.9,1.8v3.6v1.2c0,0,0,0,0.1,0h18.1c3.4,0,6.1-1.9,6.9-2.5c-1-1.1-2.7-2.4-4.9-2.4H13.5
	V1.3v0.4L12.9,1.8z"/>
<g class="st1">
	<g class="st2">
		<path class="st3" d="M34.7,2.8c0-0.6,0.6-1.1,1.4-1.1c0.8,0,1.4,0.5,1.4,1.1s-0.6,1.1-1.4,1.1S34.7,3.4,34.7,2.8z M36.8,2.8
			c0-0.3-0.3-0.6-0.7-0.6s-0.7,0.3-0.7,0.6s0.3,0.6,0.7,0.6C36.5,3.4,36.8,3.1,36.8,2.8z"/>
	</g>
	<g class="st2">
		<path class="st3" d="M0.3,2.3C0.3,1,1.5,0,3,0h10c0.4,0,0.7,0.3,0.7,0.6S13.3,1.1,13,1.1H3c-0.8,0-1.4,0.5-1.4,1.1S2.2,3.3,3,3.3
			h9.9c0.4,0,0.7,0.3,0.7,0.6l0,0c0,0.3-0.3,0.6-0.7,0.6H3C1.5,4.5,0.3,3.5,0.3,2.3z"/>
	</g>
	<g class="st2">
		<path class="st3" d="M14.5,4V0.6c0-0.2,0.2-0.3,0.3-0.3s0.3,0.1,0.3,0.3V4c0,0.2-0.2,0.3-0.3,0.3S14.5,4.1,14.5,4z"/>
	</g>
	<g class="st2">
		<path class="st3" d="M16.4,0.6c0-0.1,0.1-0.3,0.2-0.4S16.9,0,17.1,0h19.8c2.6,0,3,1.2,3,1.9v6.2c0,0.3-0.2,0.5-0.5,0.5
			c-0.2,0.1-6.3,1.4-12,1.4S17.1,8.8,16.9,8.7c-0.3-0.1-0.5-0.3-0.5-0.5V0.6z M38.6,1.9c0-0.3,0-0.8-1.6-0.8H17.8v6.6
			c1.3,0.3,5.1,1.1,9.6,1.1c4.6,0,9.6-0.9,11.2-1.2V1.9z"/>
	</g>
	<g class="st2">
		<path class="st3" d="M19.2,6.6L19.2,6.6c0-0.2,0.2-0.3,0.4-0.3c5.9,1,10.2,0.8,12.8,0.4c0.2,0,0.4,0.1,0.4,0.2
			c0,0.2-0.1,0.3-0.3,0.3c-2.6,0.4-7.1,0.6-13-0.4C19.3,6.9,19.2,6.8,19.2,6.6z"/>
	</g>
</g>
<g>
	<g>
		<path class="st3" d="M30.3,8.2l0-6.4c0-0.5-0.2-0.9-0.5-1.2c-0.3-0.3-0.8-0.5-1.2-0.5l-7.7,0c-1,0-1.8,0.8-1.8,1.8l0,2.8h-3.8V3.2
			h-0.7l0,3.5l0.7,0V5.4l3.8,0l0,2.8c0,0.5,0.2,0.9,0.5,1.2c0.3,0.3,0.8,0.5,1.2,0.5h7.7c0.5,0,0.9-0.2,1.2-0.5
			C30.1,9.1,30.3,8.7,30.3,8.2z M28.5,9.2l-7.7,0c-0.3,0-0.5-0.1-0.7-0.3c-0.2-0.2-0.3-0.5-0.3-0.7l0-6.4c0-0.6,0.5-1,1-1l7.7,0
			c0.3,0,0.5,0.1,0.7,0.3c0.2,0.2,0.3,0.5,0.3,0.7l0,6.4c0,0.3-0.1,0.5-0.3,0.7S28.8,9.2,28.5,9.2z"/>
		<path class="st3" d="M10.4,3.2V4h2.7l0,2.1L1.8,6C1.5,6,1.2,5.9,1,5.7C0.8,5.5,0.7,5.3,0.7,5c0-0.6,0.5-1,1-1l7.6,0V3.2l-7.6,0
			C0.8,3.2,0,4,0,5c0,0.5,0.2,0.9,0.5,1.2s0.8,0.5,1.2,0.5l12.1,0l0-3.5L10.4,3.2z"/>
		<rect x="20.8" y="2.3" class="st3" width="7.7" height="0.7"/>
		<rect x="20.8" y="4.6" class="st3" width="7.7" height="0.7"/>
		<rect x="20.8" y="6.9" class="st3" width="7.7" height="0.7"/>
	</g>
</g>
</svg>
